<svg xmlns="http://www.w3.org/2000/svg" width="242.818" height="242.818" viewBox="0 0 242.818 242.818"><path d="M121.41 23.45c-54.017 0-97.96 43.943-97.96 97.96s43.943 97.958 97.96 97.958 97.958-43.943 97.958-97.96-43.943-97.958-97.96-97.958zm42.41 137.234l-.423.52c-.892.915-2.498 1.835-4.086 1.835-2.272 0-3.53-1.28-4.07-1.82l-33.33-32.997-33.014 33c-.877.892-2.485 1.805-4.052 1.805-2.29 0-3.592-1.348-4.084-1.85-1.94-1.94-2.14-5.347-.427-7.87l.45-.56 32.993-32.976-33.33-32.996c-1.982-1.985-2.188-5.387-.486-7.93l.447-.56c1.907-1.946 5.44-2.13 7.908-.47l.542.45 33.015 33.015 33.016-33.014c1.935-1.933 5.458-2.11 7.916-.452l.598.41.412.604c1.72 2.536 1.512 5.933-.45 7.9l-32.984 33.045 32.997 33.008c1.972 1.96 2.172 5.364.452 7.913l-.008-.01z"/></svg>