<svg xmlns="http://www.w3.org/2000/svg" width="242.818" height="242.818" viewBox="0 0 242.818 242.818"><path fill="#2D0606" d="M121.41 23.45c-54.017 0-97.96 43.944-97.96 97.96 0 54.017 43.943 97.958 97.96 97.958s97.958-43.943 97.958-97.96c0-54.016-43.942-97.958-97.96-97.958zm64.133 83.16l-.69.864-63.122 63.695-63.757-63.75c-3.03-3.013-3.336-8.24-.695-12.155l.007.015.003.004.65-.798c1.37-1.404 3.836-2.817 6.276-2.817 3.497 0 5.423 1.957 6.257 2.786l51.2 50.69 50.718-50.693c1.347-1.37 3.817-2.772 6.226-2.772 3.518 0 5.52 2.07 6.275 2.845 2.98 2.978 3.287 8.21.654 12.084z"/></svg>