<svg xmlns="http://www.w3.org/2000/svg" width="242.818" height="242.818" viewBox="0 0 242.818 242.818"><path d="M121.41 24.344c-53.524 0-97.067 43.542-97.067 97.065 0 53.52 43.542 97.06 97.066 97.06 53.52 0 97.06-43.548 97.06-97.07 0-53.524-43.548-97.066-97.07-97.066zm38.2 133.153H84.216c-2.78 0-5.22-2.438-5.22-5.22 0-2.78 2.44-5.22 5.224-5.22h75.392c2.782 0 5.225 2.447 5.225 5.226 0 2.833-2.395 5.225-5.225 5.225v-.01zm0-31.118H84.216c-2.78 0-5.22-2.44-5.22-5.22 0-2.8 2.44-5.23 5.224-5.23h75.392c2.78 0 5.225 2.43 5.225 5.203 0 2.78-2.445 5.225-5.225 5.225v.012zm0-31.12H84.216c-2.78 0-5.22-2.44-5.22-5.23s2.44-5.227 5.224-5.227h75.392c2.782 0 5.225 2.442 5.225 5.225s-2.446 5.223-5.226 5.223z"/></svg>