<?xml version="1.0" encoding="utf-8"?>
<!-- Generator: Adobe Illustrator 16.0.4, SVG Export Plug-In . SVG Version: 6.00 Build 0)  -->
<!DOCTYPE svg PUBLIC "-//W3C//DTD SVG 1.1//EN" "http://www.w3.org/Graphics/SVG/1.1/DTD/svg11.dtd">
<svg version="1.1" id="Layer_1" xmlns="http://www.w3.org/2000/svg" xmlns:xlink="http://www.w3.org/1999/xlink" x="0px" y="0px"
	 width="244.95px" height="244.95px" viewBox="783.3 0 244.95 244.95" enable-background="new 783.3 0 244.95 244.95"
	 xml:space="preserve">
<path fill="#1E582C" d="M905.776,0C838.136,0,783.3,54.834,783.3,122.474S838.137,244.95,905.777,244.95
	c67.64,0,122.474-54.835,122.474-122.476C1028.25,54.834,973.42,0,905.78,0H905.776z M907.026,137.48
	c0,4.52-3.664,8.183-8.184,8.183c-4.518,0-8.182-3.663-8.182-8.182c0-4.52,3.67-8.18,8.189-8.18c4.521,0,8.181,3.67,8.181,8.19
	L907.026,137.48z M903.351,122.474c0-1.34,1.091-2.424,2.431-2.424s2.43,1.085,2.43,2.424c0,1.34-1.08,2.425-2.42,2.425
	s-2.42-1.09-2.42-2.43L903.351,122.474z M890.361,107.478c4.52,0,8.189,3.664,8.189,8.183s-3.66,8.19-8.18,8.19
	c-4.521,0-8.18-3.66-8.18-8.18s3.659-8.18,8.18-8.18L890.361,107.478z M803.691,92.023c0-18.745,15.199-33.942,33.939-33.942
	c18.75,0,33.95,15.2,33.95,33.95s-15.19,33.94-33.94,33.94c-18.739,0-33.939-15.19-33.939-33.94L803.691,92.023z M875.521,223.547
	c-18.74,0-33.94-15.196-33.94-33.94c0-18.747,15.2-33.943,33.94-33.943c18.739,0,33.939,15.197,33.939,33.943
	C909.461,208.351,894.261,223.546,875.521,223.547L875.521,223.547z M904.311,107.175c0-4.52,3.66-8.183,8.181-8.183
	c4.52,0,8.189,3.664,8.189,8.183c0,4.519-3.659,8.183-8.18,8.183c-4.52,0-8.18-3.664-8.18-8.183H904.311z M920.981,137.177
	c-4.511,0-8.181-3.663-8.181-8.183s3.67-8.182,8.181-8.182c4.52,0,8.189,3.663,8.189,8.182c0,4.52-3.66,8.183-8.18,8.183H920.981z
	 M900.67,54.14c0-18.744,15.196-33.94,33.94-33.94c18.745,0,33.942,15.196,33.942,33.94c0,18.744-15.197,33.943-33.942,33.943
	S900.67,72.886,900.67,54.14L900.67,54.14z M972.494,185.363c-18.747,0-33.942-15.197-33.942-33.942s15.196-33.94,33.943-33.94
	c18.742,0,33.939,15.2,33.939,33.94c0,18.74-15.197,33.95-33.939,33.95L972.494,185.363z"/>
</svg>
