<svg xmlns="http://www.w3.org/2000/svg" width="108.667" height="108.667" viewBox="0 0 108.667 108.667"><path d="M54.334 1.934c-28.894 0-52.4 23.506-52.4 52.4 0 28.893 23.506 52.4 52.4 52.4 28.893 0 52.4-23.507 52.4-52.4 0-28.894-23.507-52.4-52.4-52.4zm22.686 73.41l-.225.276c-.477.49-1.337.982-2.186.982-1.22 0-1.89-.68-2.18-.97L54.6 57.982 36.94 75.634c-.47.476-1.33.965-2.168.965-1.225 0-1.922-.72-2.185-.99-1.038-1.04-1.144-2.86-.228-4.21l.24-.3 17.65-17.64-17.83-17.65c-1.06-1.06-1.17-2.88-.26-4.24l.24-.3c1.02-1.04 2.91-1.14 4.23-.25l.29.24 17.66 17.66 17.66-17.66c1.035-1.035 2.92-1.13 4.235-.243l.32.22.22.322c.92 1.356.81 3.173-.24 4.226L59.13 53.46l17.65 17.656c1.056 1.05 1.163 2.87.243 4.232z"/></svg>