<svg xmlns="http://www.w3.org/2000/svg" width="1028.25" height="354.869" viewBox="0 0 1028.25 354.869"><g fill="#2E8D59"><path d="M15.78 126.184c9.26-9.462 21.04-14.194 35.343-14.194 19.143 0 33.13 6.343 41.98 19.03 4.887 7.125 7.508 14.275 7.866 21.453H76.94c-1.527-5.51-3.486-9.673-5.88-12.477-4.28-4.996-10.626-7.492-19.03-7.492-8.56 0-15.307 3.524-20.248 10.563-4.943 7.054-7.41 17.022-7.41 29.918 0 12.898 2.61 22.557 7.818 28.976 5.21 6.43 11.84 9.64 19.875 9.64 8.24 0 14.524-2.75 18.846-8.27 2.39-2.963 4.378-7.404 5.956-13.333h23.865c-2.055 12.528-7.314 22.722-15.775 30.58-8.46 7.847-19.306 11.774-32.525 11.774-16.36 0-29.224-5.304-38.587-15.91C4.483 205.77-.2 191.16-.2 172.59c0-20.067 5.335-35.535 15.98-46.406m151.706 18.41c4.27 1.83 7.78 4.608 10.525 8.356 2.335 3.18 3.75 6.443 4.27 9.798.52 3.36.78 8.833.78 16.432v49.967h-22.696V177.37c0-4.582-.777-8.272-2.324-11.082-2.013-3.96-5.836-5.938-11.456-5.938-5.835 0-10.264 1.968-13.283 5.896-3.023 3.933-4.53 9.54-4.53 16.827v46.074h-22.23V114.562h22.23v40.558c3.21-4.934 6.927-8.38 11.147-10.33 4.216-1.953 8.658-2.926 13.32-2.926 5.227 0 9.98.914 14.25 2.73m69.328-2.458c.284.024.923.066 1.91.114v22.778c-1.4-.152-2.654-.257-3.75-.314-1.084-.05-1.974-.075-2.642-.075-8.95 0-14.955 2.91-18.024 8.73-1.72 3.273-2.57 8.322-2.57 15.14v40.632h-22.39v-85.02h21.21v14.82c3.435-5.672 6.424-9.543 8.97-11.622 4.16-3.484 9.568-5.224 16.227-5.224.414 0 .763.01 1.053.034m29.007-8.147h-22.55V113.47h22.547v20.516zm-22.54 10.14h22.544v85.02h-22.54v-85.02zm47.727 57.88c.47 3.95 1.487 6.757 3.054 8.422 2.775 2.96 7.894 4.446 15.366 4.446 4.387 0 7.878-.65 10.464-1.952 2.59-1.3 3.877-3.25 3.877-5.85 0-2.497-1.043-4.396-3.126-5.69-2.08-1.306-9.834-3.538-23.255-6.71-9.663-2.39-16.464-5.388-20.417-8.973-3.957-3.536-5.927-8.633-5.927-15.29 0-7.85 3.085-14.598 9.26-20.238 6.176-5.647 14.867-8.468 26.07-8.468 10.63 0 19.297 2.124 25.99 6.36 6.7 4.237 10.54 11.555 11.53 21.955h-22.23c-.313-2.856-1.12-5.12-2.42-6.79-2.455-3.013-6.628-4.52-12.52-4.52-4.85 0-8.308.758-10.366 2.263-2.054 1.51-3.083 3.27-3.083 5.3 0 2.555 1.09 4.396 3.28 5.545 2.19 1.19 9.93 3.25 23.216 6.16 8.854 2.082 15.493 5.226 19.908 9.44 4.368 4.266 6.554 9.596 6.554 15.99 0 8.417-3.14 15.303-9.42 20.63-6.28 5.327-15.98 7.994-29.112 7.994-13.388 0-23.277-2.82-29.66-8.457-6.385-5.65-9.58-12.834-9.58-21.57h22.547zm53.285-41.268v-15.83h11.852V121.19h21.996v23.715h13.805v15.83H378.14v44.93c0 3.488.444 5.658 1.327 6.515.89.857 3.59 1.287 8.11 1.287.68 0 1.39-.02 2.143-.038.753-.03 1.492-.07 2.222-.126v16.614l-10.528.39c-10.507.366-17.685-1.458-21.53-5.456-2.497-2.55-3.745-6.478-3.745-11.776v-52.34h-11.85zm74.4-26.752h-22.54V113.47h22.543v20.516zm-22.54 10.14h22.542v85.02H396.15v-85.02zm88.292 1.72c5.93 2.658 10.827 6.85 14.69 12.58 3.483 5.052 5.744 10.91 6.772 17.572.6 3.915.843 9.535.733 16.873H444.72c.343 8.535 3.31 14.515 8.887 17.947 3.4 2.135 7.48 3.202 12.255 3.202 5.066 0 9.18-1.308 12.345-3.908 1.728-1.4 3.248-3.356 4.577-5.85h22.693c-.6 5.04-3.343 10.166-8.24 15.363-7.615 8.27-18.28 12.4-31.987 12.4-11.314 0-21.297-3.48-29.95-10.46-8.648-6.977-12.967-18.32-12.967-34.035 0-14.73 3.895-26.025 11.708-33.884 7.81-7.858 17.947-11.79 30.41-11.79 7.395.002 14.06 1.33 19.99 3.985m-33.253 19.21c-3.144 3.232-5.117 7.62-5.925 13.156h38.303c-.407-5.9-2.38-10.377-5.925-13.434-3.543-3.055-7.94-4.588-13.18-4.588-5.71 0-10.134 1.624-13.272 4.865m165.296 14.32c-6.727 5.624-16.335 8.43-28.827 8.43H563.71v41.34h-23.86V114.17h49.36c11.385 0 20.454 2.97 27.22 8.897 6.768 5.93 10.155 15.108 10.155 27.532 0 13.57-3.37 23.16-10.1 28.77m-18.337-41.41c-3.036-2.55-7.303-3.83-12.78-3.83h-21.654v33.855h21.653c5.48 0 9.745-1.375 12.78-4.13 3.042-2.757 4.562-7.123 4.562-13.105-.008-5.976-1.52-10.245-4.568-12.79m55.18-3.98h-22.54v-20.51h22.54v20.516zm-22.54 10.14h22.54v85.02h-22.54v-85.02zm26.547 16.614v-15.83h11.86V121.19h21.99v23.715h13.81v15.83h-13.81v44.93c0 3.488.443 5.658 1.327 6.515.887.857 3.593 1.287 8.11 1.287.677 0 1.393-.02 2.15-.038.75-.03 1.496-.07 2.22-.126v16.614l-10.526.39c-10.51.366-17.685-1.458-21.533-5.456-2.49-2.55-3.736-6.478-3.736-11.776v-52.34h-11.86zM729.325 202c.46 3.95 1.48 6.76 3.05 8.424 2.768 2.96 7.89 4.446 15.364 4.446 4.387 0 7.875-.65 10.46-1.954 2.587-1.3 3.88-3.25 3.88-5.85 0-2.497-1.043-4.396-3.13-5.69-2.074-1.306-9.83-3.538-23.248-6.71-9.662-2.39-16.473-5.388-20.418-8.973-3.96-3.536-5.932-8.633-5.932-15.29 0-7.85 3.09-14.598 9.263-20.238 6.177-5.647 14.864-8.468 26.068-8.468 10.633 0 19.298 2.125 25.99 6.36 6.696 4.238 10.536 11.556 11.53 21.956h-22.23c-.312-2.856-1.12-5.12-2.425-6.79-2.455-3.013-6.625-4.52-12.52-4.52-4.85 0-8.3.758-10.357 2.263-2.06 1.51-3.094 3.27-3.094 5.3 0 2.555 1.098 4.396 3.29 5.545 2.193 1.19 9.926 3.25 23.213 6.16 8.852 2.084 15.49 5.228 19.91 9.44 4.368 4.268 6.547 9.598 6.547 15.99 0 8.42-3.138 15.305-9.41 20.63-6.285 5.33-15.99 7.996-29.12 7.996-13.384 0-23.275-2.82-29.654-8.457-6.384-5.65-9.58-12.834-9.58-21.57h22.55zm-514.69 35.16h81.974v20.2H238.5v26.44h50.937v19.977H238.5v48.193h-23.864zm109.058 19.656H301.15v-20.512h22.546v20.512zm-22.545 10.14h22.55v85.012h-22.55v-85.01zm30.16-29.948h22.23v114.964h-22.23zm136.41 30.26c3.64 1.454 6.945 4.002 9.902 7.65 2.393 2.955 4.01 6.6 4.844 10.913.516 2.857.773 7.05.773 12.56l-.15 53.584h-22.78V297.85c0-3.227-.52-5.875-1.56-7.953-1.977-3.955-5.614-5.93-10.92-5.93-6.134 0-10.376 2.54-12.716 7.643-1.195 2.698-1.795 5.954-1.795 9.754v50.613h-22.38v-50.613c0-5.048-.52-8.717-1.564-11.002-1.865-4.104-5.534-6.165-10.996-6.165-6.35 0-10.61 2.062-12.793 6.165-1.19 2.342-1.79 5.817-1.79 10.453v51.162h-22.54v-84.86h21.605v12.4c2.753-4.42 5.354-7.565 7.8-9.437 4.31-3.326 9.9-4.99 16.77-4.99 6.506 0 11.75 1.432 15.755 4.287 3.223 2.658 5.668 6.055 7.33 10.225 2.915-4.996 6.528-8.67 10.843-10.998 4.58-2.346 9.677-3.515 15.293-3.515 3.737-.008 7.43.722 11.07 2.18M525.1 237.16h81.975v20.198h-58.11v26.443h50.93v19.975h-50.93v48.193H525.1zm139.21 31.512c5.927 2.662 10.82 6.854 14.69 12.58 3.48 5.052 5.736 10.91 6.77 17.575.596 3.91.842 9.534.732 16.882h-61.927c.343 8.523 3.304 14.5 8.89 17.935 3.395 2.13 7.478 3.2 12.253 3.2 5.06 0 9.182-1.303 12.35-3.903 1.727-1.406 3.252-3.35 4.565-5.854h22.698c-.59 5.05-3.342 10.17-8.23 15.37-7.62 8.26-18.28 12.4-31.99 12.4-11.316 0-21.295-3.48-29.946-10.46-8.646-6.974-12.97-18.32-12.97-34.04 0-14.72 3.9-26.016 11.71-33.876 7.803-7.856 17.94-11.79 30.4-11.79 7.4.002 14.07 1.334 20.002 3.983m-33.262 19.206c-3.142 3.242-5.115 7.618-5.928 13.164h38.306c-.408-5.9-2.38-10.384-5.928-13.438-3.545-3.06-7.93-4.59-13.186-4.59-5.704 0-10.13 1.627-13.266 4.86"/><path d="M710.197 324.836c.465 3.955 1.484 6.757 3.05 8.427 2.768 2.962 7.89 4.438 15.364 4.438 4.39 0 7.88-.64 10.47-1.94 2.583-1.3 3.875-3.25 3.875-5.85 0-2.5-1.042-4.393-3.12-5.692-2.083-1.296-9.84-3.533-23.257-6.714-9.657-2.387-16.468-5.374-20.418-8.964-3.956-3.54-5.93-8.63-5.93-15.29 0-7.85 3.09-14.598 9.254-20.24 6.183-5.64 14.874-8.46 26.074-8.46 10.638 0 19.298 2.115 25.994 6.355 6.698 4.23 10.547 11.554 11.536 21.95h-22.23c-.316-2.848-1.12-5.114-2.425-6.78-2.447-3.014-6.62-4.52-12.52-4.52-4.85 0-8.3.755-10.36 2.26-2.055 1.515-3.09 3.28-3.09 5.306 0 2.55 1.097 4.397 3.284 5.54 2.192 1.194 9.93 3.25 23.218 6.164 8.85 2.078 15.49 5.22 19.91 9.438 4.37 4.263 6.555 9.59 6.555 15.985 0 8.422-3.142 15.3-9.42 20.63-6.28 5.33-15.985 8-29.11 8-13.393 0-23.278-2.826-29.662-8.47-6.385-5.64-9.574-12.828-9.574-21.563h22.54zm53.283-41.262v-15.83h11.852v-23.71h22v23.71h13.806v15.83h-13.806V328.5c0 3.49.44 5.65 1.327 6.52.872.854 3.58 1.28 8.1 1.28.68 0 1.396-.01 2.152-.03.746-.036 1.49-.07 2.22-.124v16.61l-10.53.39c-10.51.37-17.684-1.445-21.524-5.452-2.496-2.554-3.75-6.478-3.75-11.785v-52.34h-11.85zm74.402-26.754h-22.545v-20.512h22.545v20.512zm-22.54 10.14h22.545v85.012h-22.545V266.96zm86.863 0h23.872l-30.705 85.012h-23.44l-30.486-85.013h24.962l17.703 62.71zm57.362 33.305c4.14-.518 7.092-1.168 8.875-1.945 3.2-1.354 4.798-3.463 4.798-6.323 0-3.48-1.23-5.888-3.677-7.215-2.456-1.327-6.056-1.986-10.796-1.986-5.32 0-9.09 1.3-11.306 3.897-1.58 1.93-2.64 4.52-3.16 7.8h-21.44c.46-7.435 2.556-13.543 6.26-18.323 5.9-7.496 16.033-11.24 30.396-11.24 9.346 0 17.65 1.846 24.918 5.546 7.255 3.683 10.89 10.66 10.89 20.896v39c0 2.707.048 5.985.148 9.83.16 2.913.604 4.886 1.328 5.928.73 1.04 1.82 1.898 3.28 2.574v3.273H975.9c-.677-1.71-1.146-3.326-1.402-4.838-.26-1.51-.47-3.23-.628-5.148-3.09 3.326-6.64 6.16-10.674 8.498-4.806 2.76-10.25 4.136-16.313 4.136-7.74 0-14.134-2.19-19.183-6.59-5.05-4.395-7.57-10.617-7.57-18.684 0-10.453 4.06-18.01 12.184-22.694 4.448-2.554 10.995-4.368 19.638-5.464l7.627-.936zm13.59 10.375c-1.424.882-2.86 1.595-4.31 2.14-1.446.554-3.437 1.062-5.968 1.524l-5.07.936c-4.744.83-8.15 1.846-10.215 3.04-3.5 2.03-5.25 5.177-5.25 9.44 0 3.8 1.067 6.547 3.202 8.228 2.144 1.69 4.74 2.536 7.803 2.536 4.86 0 9.334-1.406 13.424-4.21 4.095-2.808 6.213-7.927 6.375-15.37v-8.264zm30.067-73.628h23.024v114.965h-23.024z"/></g><path fill="#1E582C" d="M905.776 0C838.136 0 783.3 54.834 783.3 122.474S838.137 244.95 905.777 244.95s122.474-54.835 122.474-122.476C1028.25 54.834 973.42 0 905.78 0zm1.25 137.48c0 4.52-3.664 8.183-8.183 8.183-4.518 0-8.182-3.663-8.182-8.182 0-4.52 3.67-8.18 8.19-8.18s8.18 3.667 8.18 8.187zm-3.675-15.006c0-1.34 1.09-2.424 2.43-2.424s2.427 1.085 2.427 2.424c0 1.34-1.085 2.425-2.425 2.425-1.34 0-2.424-1.09-2.424-2.43zm-12.99-14.996c4.52 0 8.187 3.664 8.187 8.183s-3.663 8.19-8.183 8.19-8.18-3.664-8.18-8.183 3.66-8.182 8.18-8.182zm-86.67-15.455c0-18.745 15.2-33.942 33.94-33.942 18.75 0 33.945 15.2 33.945 33.95s-15.196 33.94-33.943 33.94c-18.74 0-33.94-15.196-33.94-33.94zm71.826 131.524c-18.747 0-33.942-15.197-33.942-33.94 0-18.747 15.195-33.944 33.942-33.944 18.742 0 33.94 15.197 33.94 33.943 0 18.744-15.198 33.94-33.94 33.94zm28.79-116.372c0-4.52 3.66-8.183 8.182-8.183s8.185 3.664 8.185 8.183-3.662 8.183-8.183 8.183-8.183-3.664-8.183-8.183zm16.666 30.002c-4.517 0-8.18-3.663-8.18-8.183s3.663-8.182 8.18-8.182c4.52 0 8.185 3.663 8.185 8.182 0 4.52-3.665 8.183-8.186 8.183zm-20.31-83.037c0-18.744 15.197-33.94 33.94-33.94 18.747 0 33.944 15.196 33.944 33.94s-15.197 33.943-33.943 33.943c-18.744 0-33.94-15.197-33.94-33.942zm71.825 131.223c-18.747 0-33.942-15.197-33.942-33.942s15.195-33.94 33.942-33.94c18.744 0 33.94 15.2 33.94 33.94s-15.196 33.95-33.94 33.95z"/></svg>