<svg xmlns="http://www.w3.org/2000/svg" width="1028.25" height="354.869" viewBox="0 0 1028.25 354.869"><g fill="#2E8D59"><path d="M15.78 126.184c9.26-9.462 21.04-14.194 35.343-14.194 19.143 0 33.13 6.343 41.98 19.03 4.887 7.125 7.508 14.275 7.866 21.453H76.94c-1.527-5.51-3.486-9.673-5.88-12.477-4.28-4.996-10.626-7.492-19.03-7.492-8.56 0-15.307 3.524-20.248 10.563-4.943 7.054-7.41 17.022-7.41 29.918 0 12.898 2.61 22.557 7.818 28.976 5.21 6.43 11.84 9.64 19.875 9.64 8.24 0 14.524-2.75 18.846-8.27 2.39-2.96 4.38-7.4 5.96-13.33h23.87c-2.055 12.53-7.314 22.72-15.775 30.58-8.46 7.85-19.306 11.78-32.525 11.78-16.36 0-29.225-5.304-38.588-15.91C4.484 205.77-.2 191.16-.2 172.59c0-20.067 5.335-35.535 15.98-46.406m151.706 18.41c4.27 1.83 7.78 4.608 10.525 8.356 2.34 3.18 3.75 6.443 4.27 9.798.52 3.36.78 8.833.78 16.432v49.967h-22.69V177.37c0-4.582-.773-8.272-2.32-11.082-2.012-3.96-5.835-5.938-11.455-5.938-5.835 0-10.264 1.968-13.283 5.896-3.023 3.933-4.53 9.54-4.53 16.827v46.074h-22.23V114.562h22.23v40.558c3.21-4.934 6.927-8.38 11.147-10.33 4.215-1.953 8.657-2.926 13.32-2.926 5.226 0 9.98.914 14.25 2.73m69.327-2.458c.285.024.924.066 1.91.114v22.778c-1.4-.152-2.653-.257-3.75-.314-1.083-.05-1.973-.075-2.64-.075-8.95 0-14.956 2.91-18.025 8.73-1.72 3.27-2.57 8.32-2.57 15.14v40.63h-22.39v-85.02h21.21v14.82c3.434-5.67 6.423-9.55 8.97-11.62 4.16-3.49 9.57-5.23 16.226-5.23.414 0 .763.01 1.053.03m29.007-8.147h-22.55v-20.51h22.548v20.515zm-22.54 10.14h22.545v85.02h-22.54v-85.02zM291.01 202c.47 3.95 1.487 6.757 3.054 8.422 2.774 2.96 7.893 4.446 15.365 4.446 4.38 0 7.87-.65 10.46-1.952 2.59-1.3 3.874-3.25 3.874-5.85 0-2.497-1.044-4.396-3.127-5.69-2.08-1.306-9.833-3.538-23.254-6.71-9.664-2.39-16.465-5.388-20.418-8.973-3.96-3.536-5.93-8.633-5.93-15.29 0-7.85 3.086-14.598 9.26-20.238 6.177-5.647 14.87-8.468 26.07-8.468 10.63 0 19.3 2.123 25.99 6.36 6.7 4.236 10.54 11.554 11.53 21.954h-22.23c-.31-2.85-1.12-5.12-2.42-6.79-2.454-3.01-6.627-4.52-12.52-4.52-4.85 0-8.307.76-10.365 2.27-2.054 1.51-3.083 3.27-3.083 5.3 0 2.556 1.09 4.397 3.28 5.546 2.19 1.19 9.93 3.25 23.216 6.16 8.854 2.08 15.493 5.226 19.908 9.44 4.37 4.266 6.557 9.596 6.557 15.99 0 8.417-3.14 15.303-9.42 20.63-6.28 5.327-15.98 7.994-29.11 7.994-13.39 0-23.28-2.82-29.66-8.458-6.387-5.65-9.58-12.835-9.58-21.57H291zm53.285-41.268v-15.83h11.852V121.19h21.996v23.715h13.806v15.83h-13.81v44.93c0 3.488.44 5.658 1.32 6.515.89.857 3.59 1.287 8.11 1.287.68 0 1.39-.02 2.144-.038.752-.03 1.49-.07 2.22-.13v16.61l-10.527.39c-10.507.365-17.685-1.46-21.53-5.457-2.497-2.55-3.745-6.478-3.745-11.776v-52.34h-11.85zm74.4-26.752h-22.54v-20.51h22.543v20.516zm-22.54 10.14h22.542v85.02H396.15v-85.02zm88.292 1.72c5.93 2.658 10.827 6.85 14.69 12.58 3.483 5.052 5.744 10.91 6.772 17.572.6 3.915.84 9.535.73 16.873h-61.92c.34 8.535 3.31 14.515 8.883 17.947 3.4 2.135 7.48 3.202 12.254 3.202 5.066 0 9.18-1.308 12.345-3.908 1.727-1.4 3.247-3.356 4.576-5.85h22.693c-.6 5.04-3.343 10.166-8.24 15.363-7.615 8.27-18.28 12.4-31.987 12.4-11.314 0-21.297-3.48-29.95-10.46-8.648-6.98-12.967-18.32-12.967-34.04 0-14.73 3.895-26.027 11.71-33.886 7.81-7.858 17.95-11.79 30.41-11.79 7.395.002 14.06 1.33 19.99 3.985m-33.25 19.21c-3.147 3.232-5.12 7.62-5.928 13.156h38.303c-.406-5.9-2.38-10.377-5.924-13.434-3.54-3.056-7.94-4.59-13.18-4.59-5.71 0-10.13 1.625-13.27 4.866m165.298 14.32c-6.727 5.622-16.335 8.43-28.827 8.43h-23.95v41.34h-23.86V114.17h49.36c11.385 0 20.454 2.97 27.22 8.897 6.77 5.93 10.155 15.108 10.155 27.532 0 13.57-3.37 23.16-10.1 28.77m-18.337-41.41c-3.036-2.55-7.303-3.83-12.78-3.83H563.71v33.85h21.654c5.48 0 9.744-1.38 12.78-4.13 3.04-2.76 4.56-7.127 4.56-13.11-.01-5.976-1.52-10.245-4.57-12.79m55.18-3.98h-22.54v-20.51h22.54v20.516zm-22.54 10.14h22.54v85.02h-22.54v-85.02zm26.546 16.614V144.9h11.86v-23.71h21.99v23.715h13.81v15.83h-13.81v44.93c0 3.488.442 5.658 1.326 6.515.89.857 3.594 1.287 8.11 1.287.68 0 1.394-.02 2.15-.038.75-.03 1.497-.07 2.22-.13v16.61l-10.525.39c-10.51.365-17.685-1.46-21.533-5.457-2.49-2.55-3.734-6.478-3.734-11.776v-52.34h-11.86zm72 41.272c.46 3.95 1.48 6.76 3.05 8.423 2.767 2.96 7.89 4.446 15.363 4.446 4.383 0 7.87-.65 10.46-1.955 2.583-1.3 3.88-3.25 3.88-5.85 0-2.496-1.047-4.395-3.13-5.69-2.078-1.305-9.83-3.537-23.25-6.71-9.66-2.39-16.475-5.387-20.42-8.972-3.96-3.538-5.93-8.635-5.93-15.29 0-7.85 3.09-14.6 9.262-20.24 6.18-5.647 14.867-8.468 26.07-8.468 10.635 0 19.3 2.125 25.99 6.36 6.698 4.238 10.538 11.556 11.53 21.956h-22.23c-.31-2.857-1.12-5.12-2.423-6.79-2.456-3.014-6.626-4.52-12.52-4.52-4.85 0-8.3.757-10.358 2.262-2.06 1.51-3.096 3.27-3.096 5.3 0 2.555 1.1 4.396 3.29 5.545 2.194 1.19 9.927 3.25 23.214 6.16 8.85 2.09 15.49 5.23 19.91 9.44 4.365 4.27 6.544 9.6 6.544 15.99 0 8.42-3.137 15.31-9.41 20.63-6.284 5.33-15.99 8-29.12 8-13.383 0-23.274-2.82-29.653-8.456-6.385-5.65-9.58-12.833-9.58-21.57h22.55zm-514.69 35.16h81.973v20.2H238.5v26.44h50.937v19.976H238.5v48.193h-23.864zm109.057 19.655h-22.54V236.3h22.546v20.513zm-22.545 10.14h22.55v85.013h-22.55v-85.01zm30.16-29.947h22.23V351.97h-22.23zm136.41 30.26c3.64 1.454 6.945 4.002 9.902 7.65 2.39 2.955 4.01 6.6 4.84 10.913.517 2.86.774 7.05.774 12.56l-.15 53.59H460.3v-54.13c0-3.227-.52-5.875-1.56-7.953-1.976-3.955-5.613-5.93-10.92-5.93-6.133 0-10.375 2.54-12.715 7.643-1.193 2.698-1.793 5.954-1.793 9.754v50.614h-22.38V301.36c0-5.047-.52-8.716-1.564-11-1.863-4.105-5.532-6.166-10.994-6.166-6.35 0-10.61 2.062-12.793 6.165-1.19 2.34-1.79 5.815-1.79 10.45v51.163h-22.54v-84.86h21.607v12.4c2.75-4.42 5.352-7.565 7.8-9.437 4.31-3.326 9.9-4.99 16.77-4.99 6.504 0 11.75 1.432 15.753 4.287 3.223 2.658 5.67 6.055 7.33 10.225 2.915-4.997 6.53-8.67 10.843-11 4.58-2.345 9.677-3.514 15.293-3.514 3.735-.01 7.43.72 11.07 2.18m57.38-30.11h81.974v20.193h-58.11v26.45h50.93v19.975h-50.93v48.193H525.1zm139.21 31.51c5.926 2.66 10.82 6.85 14.69 12.58 3.48 5.05 5.735 10.91 6.77 17.572.595 3.91.84 9.533.73 16.88H624.57c.343 8.523 3.304 14.5 8.89 17.935 3.395 2.13 7.478 3.2 12.253 3.2 5.06 0 9.182-1.302 12.35-3.902 1.727-1.406 3.252-3.35 4.565-5.854h22.698c-.59 5.05-3.34 10.17-8.23 15.37-7.62 8.26-18.28 12.4-31.99 12.4-11.312 0-21.29-3.48-29.942-10.46-8.646-6.973-12.97-18.32-12.97-34.04 0-14.72 3.9-26.015 11.71-33.875 7.803-7.855 17.94-11.79 30.4-11.79 7.4.003 14.07 1.335 20.002 3.984m-33.263 19.206c-3.142 3.243-5.115 7.62-5.928 13.165h38.303c-.408-5.9-2.38-10.383-5.928-13.437-3.545-3.06-7.93-4.59-13.186-4.59-5.705 0-10.13 1.627-13.267 4.86"/><path d="M710.197 324.836c.465 3.955 1.484 6.757 3.05 8.427 2.768 2.962 7.89 4.438 15.364 4.438 4.39 0 7.88-.64 10.47-1.94 2.59-1.3 3.88-3.25 3.88-5.85 0-2.5-1.04-4.39-3.12-5.69-2.08-1.29-9.84-3.53-23.253-6.71-9.657-2.384-16.47-5.37-20.42-8.96-3.954-3.54-5.93-8.63-5.93-15.29 0-7.85 3.09-14.598 9.256-20.24 6.183-5.64 14.874-8.46 26.074-8.46 10.636 0 19.296 2.115 25.992 6.355 6.697 4.23 10.546 11.554 11.535 21.95h-22.23c-.315-2.85-1.12-5.114-2.424-6.78-2.446-3.014-6.62-4.52-12.52-4.52-4.85 0-8.3.755-10.36 2.26-2.054 1.515-3.09 3.28-3.09 5.306 0 2.55 1.098 4.397 3.285 5.54 2.19 1.194 9.93 3.25 23.217 6.164 8.85 2.076 15.49 5.22 19.91 9.436 4.37 4.26 6.555 9.59 6.555 15.983 0 8.42-3.14 15.3-9.42 20.63-6.28 5.33-15.985 8-29.11 8-13.393 0-23.28-2.824-29.66-8.47-6.387-5.64-9.576-12.83-9.576-21.56h22.54zm53.283-41.262v-15.83h11.852v-23.71h22v23.71h13.806v15.83h-13.806V328.5c0 3.49.44 5.65 1.327 6.52.87.854 3.58 1.28 8.1 1.28.68 0 1.39-.01 2.15-.03.74-.036 1.49-.07 2.22-.124v16.61l-10.53.39c-10.51.37-17.69-1.445-21.53-5.452-2.497-2.554-3.75-6.478-3.75-11.785v-52.34h-11.85zm74.402-26.754h-22.545v-20.512h22.545v20.512zm-22.54 10.14h22.545v85.012h-22.545V266.96zm86.863 0h23.872l-30.705 85.012h-23.44l-30.486-85.013h24.962l17.703 62.71zm57.362 33.305c4.14-.518 7.092-1.168 8.875-1.945 3.2-1.354 4.798-3.463 4.798-6.323 0-3.48-1.23-5.888-3.677-7.215-2.456-1.327-6.056-1.986-10.796-1.986-5.32 0-9.09 1.3-11.306 3.897-1.58 1.93-2.64 4.52-3.16 7.8h-21.44c.46-7.435 2.56-13.543 6.26-18.323 5.9-7.496 16.04-11.24 30.4-11.24 9.35 0 17.65 1.846 24.92 5.546 7.258 3.683 10.89 10.66 10.89 20.896v39c0 2.707.05 5.985.15 9.83.16 2.913.605 4.886 1.33 5.928.73 1.04 1.82 1.898 3.28 2.574v3.273H975.9c-.677-1.71-1.146-3.326-1.402-4.838-.26-1.51-.47-3.23-.628-5.15-3.09 3.32-6.64 6.16-10.674 8.5-4.806 2.76-10.25 4.13-16.313 4.13-7.74 0-14.134-2.19-19.183-6.59-5.05-4.398-7.57-10.62-7.57-18.687 0-10.453 4.06-18.01 12.184-22.694 4.448-2.554 10.995-4.368 19.638-5.464l7.627-.937zm13.59 10.375c-1.424.882-2.86 1.595-4.31 2.14-1.446.554-3.437 1.062-5.968 1.524l-5.07.936c-4.75.83-8.15 1.846-10.22 3.04-3.5 2.03-5.25 5.177-5.25 9.44 0 3.8 1.063 6.547 3.2 8.228 2.142 1.69 4.74 2.536 7.8 2.536 4.86 0 9.334-1.406 13.424-4.21 4.095-2.808 6.213-7.927 6.375-15.37v-8.264zm30.067-73.628h23.024v114.965h-23.024z"/></g><path fill="#1E582C" d="M905.776 0C838.136 0 783.3 54.834 783.3 122.474S838.137 244.95 905.777 244.95s122.474-54.835 122.474-122.476C1028.25 54.834 973.42 0 905.78 0zm1.25 137.48c0 4.52-3.664 8.183-8.183 8.183-4.518 0-8.182-3.663-8.182-8.182 0-4.52 3.67-8.18 8.19-8.18s8.18 3.67 8.18 8.19zm-3.675-15.006c0-1.34 1.09-2.424 2.43-2.424s2.43 1.085 2.43 2.424c0 1.34-1.08 2.425-2.42 2.425s-2.423-1.09-2.423-2.43zm-12.99-14.996c4.52 0 8.19 3.664 8.19 8.183s-3.66 8.19-8.18 8.19-8.18-3.66-8.18-8.18 3.66-8.18 8.18-8.18zm-86.67-15.455c0-18.745 15.2-33.942 33.94-33.942 18.75 0 33.95 15.2 33.95 33.95s-15.192 33.94-33.94 33.94c-18.74 0-33.94-15.19-33.94-33.94zm71.83 131.524c-18.742 0-33.94-15.197-33.94-33.94 0-18.747 15.198-33.944 33.94-33.944 18.74 0 33.94 15.197 33.94 33.943 0 18.744-15.2 33.94-33.94 33.94zm28.79-116.372c0-4.52 3.66-8.183 8.18-8.183s8.19 3.664 8.19 8.183-3.66 8.183-8.182 8.183-8.18-3.664-8.18-8.183zm16.67 30.002c-4.516 0-8.18-3.663-8.18-8.183s3.664-8.182 8.18-8.182c4.52 0 8.186 3.663 8.186 8.182 0 4.52-3.665 8.183-8.186 8.183zM900.67 54.14c0-18.744 15.196-33.94 33.94-33.94 18.746 0 33.943 15.196 33.943 33.94s-15.197 33.943-33.943 33.943c-18.745 0-33.94-15.197-33.94-33.942zm71.824 131.223c-18.747 0-33.942-15.197-33.942-33.942s15.196-33.94 33.943-33.94c18.742 0 33.94 15.2 33.94 33.94s-15.198 33.95-33.94 33.95z"/></svg>