<svg xmlns="http://www.w3.org/2000/svg" width="1028.25" height="354.869" viewBox="0 0 1028.25 354.869"><g fill="#2E8D59"><path d="M15.78 126.184c9.26-9.462 21.04-14.194 35.343-14.194 19.143 0 33.13 6.343 41.98 19.03 4.887 7.125 7.508 14.275 7.866 21.453H76.94c-1.527-5.51-3.486-9.673-5.88-12.477-4.28-4.996-10.626-7.492-19.03-7.492-8.56 0-15.307 3.524-20.248 10.563-4.943 7.054-7.41 17.022-7.41 29.918 0 12.898 2.61 22.557 7.818 28.976 5.21 6.43 11.84 9.64 19.875 9.64 8.24 0 14.524-2.75 18.846-8.27 2.39-2.96 4.38-7.4 5.96-13.33h23.87c-2.05 12.53-7.31 22.72-15.77 30.58-8.46 7.85-19.3 11.78-32.52 11.78-16.36 0-29.22-5.3-38.58-15.91C4.487 205.77-.2 191.16-.2 172.59c0-20.067 5.335-35.535 15.98-46.406m151.706 18.41c4.27 1.83 7.78 4.608 10.525 8.356 2.34 3.18 3.75 6.443 4.27 9.798.52 3.36.78 8.833.78 16.432v49.967h-22.69V177.37c0-4.582-.77-8.272-2.32-11.082-2.01-3.96-5.83-5.938-11.45-5.938-5.83 0-10.26 1.968-13.28 5.896-3.02 3.933-4.53 9.54-4.53 16.827v46.074h-22.23V114.562h22.23v40.558c3.21-4.934 6.93-8.38 11.15-10.33 4.22-1.953 8.66-2.926 13.32-2.926 5.23 0 9.98.914 14.25 2.73m69.33-2.458c.29.024.928.066 1.91.114v22.778c-1.4-.152-2.65-.257-3.75-.314-1.08-.05-1.97-.075-2.64-.075-8.95 0-14.952 2.91-18.02 8.73-1.72 3.27-2.57 8.32-2.57 15.14v40.63h-22.39v-85.02h21.21v14.82c3.433-5.67 6.422-9.55 8.97-11.62 4.16-3.49 9.57-5.23 16.225-5.23.414 0 .763.01 1.053.03m29.008-8.15h-22.55v-20.51h22.55v20.51zm-22.54 10.14h22.547v85.02H243.3v-85.02zM291.01 202c.47 3.95 1.487 6.757 3.054 8.422 2.774 2.96 7.893 4.446 15.365 4.446 4.38 0 7.87-.65 10.46-1.952 2.59-1.3 3.87-3.25 3.87-5.85 0-2.497-1.05-4.396-3.13-5.69-2.08-1.306-9.84-3.538-23.26-6.71-9.667-2.39-16.468-5.388-20.42-8.973-3.96-3.536-5.93-8.633-5.93-15.29 0-7.85 3.084-14.598 9.26-20.238 6.175-5.647 14.87-8.468 26.07-8.468 10.63 0 19.3 2.123 25.99 6.36 6.7 4.236 10.54 11.554 11.53 21.954h-22.23c-.31-2.85-1.12-5.12-2.42-6.79-2.456-3.01-6.63-4.52-12.52-4.52-4.85 0-8.31.76-10.367 2.27-2.055 1.51-3.084 3.27-3.084 5.3 0 2.56 1.09 4.4 3.28 5.55 2.19 1.19 9.93 3.25 23.217 6.16 8.853 2.08 15.492 5.23 19.907 9.44 4.37 4.27 6.56 9.6 6.56 15.99 0 8.42-3.14 15.31-9.42 20.63-6.28 5.33-15.98 8-29.11 8-13.39 0-23.28-2.82-29.66-8.45-6.387-5.65-9.58-12.836-9.58-21.57H291zm53.285-41.268v-15.83h11.852V121.19h21.996v23.715h13.806v15.83h-13.81v44.93c0 3.488.44 5.658 1.32 6.515.89.857 3.59 1.287 8.11 1.287.68 0 1.39-.02 2.14-.038.75-.03 1.49-.07 2.22-.13v16.61l-10.53.39c-10.51.36-17.69-1.46-21.53-5.46-2.5-2.55-3.75-6.48-3.75-11.78v-52.34h-11.85zm74.4-26.752h-22.54v-20.51h22.543v20.516zm-22.54 10.14h22.542v85.02H396.15v-85.02zm88.292 1.72c5.93 2.658 10.827 6.85 14.69 12.58 3.483 5.052 5.744 10.91 6.772 17.572.6 3.915.84 9.535.73 16.873h-61.92c.34 8.535 3.31 14.515 8.88 17.947 3.4 2.135 7.48 3.202 12.25 3.202 5.06 0 9.18-1.308 12.34-3.908 1.723-1.4 3.243-3.356 4.572-5.85h22.693c-.6 5.04-3.344 10.166-8.24 15.363-7.616 8.27-18.28 12.4-31.988 12.4-11.316 0-21.3-3.48-29.95-10.46-8.65-6.98-12.97-18.32-12.97-34.04 0-14.73 3.895-26.03 11.71-33.89 7.81-7.86 17.95-11.79 30.41-11.79 7.395 0 14.06 1.33 19.99 3.98m-33.25 19.21c-3.147 3.23-5.12 7.62-5.93 13.15h38.305c-.405-5.9-2.38-10.378-5.92-13.435-3.54-3.057-7.94-4.59-13.18-4.59-5.71 0-10.13 1.624-13.27 4.865m165.295 14.32c-6.725 5.623-16.333 8.43-28.825 8.43H563.7v41.34h-23.86V114.17h49.36c11.384 0 20.453 2.97 27.22 8.897 6.77 5.93 10.154 15.108 10.154 27.532 0 13.57-3.37 23.16-10.1 28.77m-18.338-41.41c-3.038-2.55-7.305-3.83-12.78-3.83h-21.65v33.85h21.653c5.48 0 9.74-1.38 12.78-4.13 3.04-2.76 4.56-7.13 4.56-13.11-.01-5.98-1.52-10.25-4.57-12.79m55.18-3.98h-22.54v-20.51h22.54v20.51zm-22.54 10.14h22.54v85.02h-22.54v-85.02zm26.54 16.61V144.9h11.86v-23.71h21.99v23.715h13.81v15.83h-13.81v44.93c0 3.488.44 5.658 1.323 6.515.89.857 3.595 1.287 8.11 1.287.68 0 1.395-.02 2.15-.038.75-.03 1.5-.07 2.22-.13v16.61l-10.524.39c-10.51.36-17.68-1.46-21.53-5.46-2.49-2.55-3.73-6.48-3.73-11.78v-52.34h-11.86zm72 41.27c.46 3.95 1.48 6.76 3.05 8.42 2.764 2.96 7.89 4.44 15.36 4.44 4.383 0 7.87-.65 10.46-1.956 2.583-1.3 3.88-3.25 3.88-5.85 0-2.497-1.047-4.396-3.13-5.69-2.078-1.306-9.83-3.538-23.25-6.71-9.66-2.39-16.475-5.388-20.42-8.973-3.96-3.54-5.93-8.635-5.93-15.29 0-7.85 3.09-14.6 9.262-20.24 6.18-5.647 14.866-8.47 26.07-8.47 10.634 0 19.3 2.126 25.99 6.36 6.697 4.24 10.537 11.557 11.53 21.957h-22.23c-.31-2.857-1.12-5.12-2.424-6.79-2.455-3.014-6.625-4.52-12.52-4.52-4.85 0-8.3.757-10.357 2.262-2.06 1.51-3.096 3.27-3.096 5.3 0 2.553 1.1 4.394 3.29 5.543 2.193 1.19 9.926 3.25 23.213 6.16 8.85 2.09 15.49 5.23 19.91 9.44 4.366 4.27 6.545 9.6 6.545 15.99 0 8.42-3.138 15.31-9.41 20.63-6.285 5.33-15.99 8-29.12 8-13.384 0-23.275-2.82-29.654-8.458-6.385-5.65-9.58-12.83-9.58-21.57h22.55zm-514.69 35.16h81.98v20.2h-58.1v26.44h50.934v19.97H238.5v48.19h-23.864zm109.06 19.65h-22.54v-20.5h22.544v20.51zm-22.547 10.14h22.55v85.01h-22.55v-85.01zm30.17-29.94h22.23v114.97h-22.23zm136.41 30.26c3.64 1.453 6.944 4 9.9 7.65 2.39 2.954 4.01 6.6 4.84 10.912.518 2.86.775 7.05.775 12.56l-.15 53.59H460.3v-54.13c0-3.227-.52-5.875-1.56-7.953-1.976-3.956-5.613-5.93-10.92-5.93-6.133 0-10.375 2.54-12.715 7.642-1.193 2.698-1.793 5.954-1.793 9.754v50.613h-22.38v-50.61c0-5.048-.52-8.717-1.564-11-1.863-4.106-5.532-6.167-10.994-6.167-6.35 0-10.61 2.062-12.793 6.165-1.19 2.34-1.79 5.81-1.79 10.45v51.16h-22.54v-84.86h21.61v12.4c2.75-4.42 5.35-7.57 7.8-9.44 4.31-3.33 9.9-4.99 16.77-4.99 6.51 0 11.75 1.43 15.76 4.28 3.23 2.66 5.67 6.053 7.33 10.223 2.92-4.996 6.53-8.67 10.85-11 4.58-2.344 9.677-3.513 15.293-3.513 3.735-.01 7.43.72 11.07 2.18m57.38-30.11h81.974v20.193h-58.11v26.45h50.93v19.975h-50.93v48.192H525.1zm139.21 31.51c5.926 2.66 10.82 6.85 14.69 12.58 3.48 5.05 5.735 10.91 6.77 17.572.595 3.91.84 9.53.73 16.88h-61.93c.344 8.52 3.305 14.5 8.89 17.932 3.396 2.13 7.48 3.2 12.254 3.2 5.06 0 9.18-1.304 12.35-3.904 1.727-1.405 3.25-3.35 4.565-5.853h22.7c-.59 5.05-3.34 10.17-8.23 15.37-7.62 8.26-18.28 12.4-31.99 12.4-11.313 0-21.29-3.48-29.943-10.46-8.646-6.975-12.97-18.32-12.97-34.04 0-14.72 3.9-26.017 11.71-33.877 7.803-7.852 17.94-11.79 30.4-11.79 7.4.006 14.07 1.338 20 3.987m-33.26 19.207c-3.144 3.242-5.117 7.62-5.93 13.164h38.302c-.41-5.9-2.38-10.38-5.93-13.436-3.544-3.06-7.93-4.59-13.185-4.59-5.705 0-10.13 1.63-13.267 4.86"/><path d="M710.197 324.836c.465 3.955 1.484 6.757 3.05 8.427 2.768 2.962 7.89 4.438 15.364 4.438 4.39 0 7.88-.64 10.47-1.94 2.59-1.3 3.88-3.25 3.88-5.85 0-2.5-1.04-4.39-3.12-5.69-2.08-1.29-9.84-3.53-23.25-6.71-9.65-2.38-16.47-5.37-20.42-8.96-3.95-3.54-5.93-8.63-5.93-15.29 0-7.85 3.09-14.59 9.26-20.24 6.19-5.64 14.88-8.46 26.08-8.46 10.64 0 19.3 2.12 25.99 6.36 6.7 4.23 10.55 11.56 11.54 21.95h-22.23c-.315-2.85-1.12-5.11-2.424-6.78-2.445-3.01-6.62-4.52-12.52-4.52-4.85 0-8.3.76-10.36 2.26-2.053 1.52-3.09 3.28-3.09 5.31 0 2.55 1.1 4.4 3.286 5.54 2.19 1.2 9.93 3.25 23.218 6.17 8.85 2.077 15.49 5.22 19.91 9.437 4.37 4.26 6.555 9.59 6.555 15.983 0 8.42-3.14 15.3-9.42 20.63-6.28 5.33-15.984 8-29.11 8-13.392 0-23.28-2.825-29.66-8.47-6.386-5.64-9.575-12.83-9.575-21.56h22.54zm53.283-41.262v-15.83h11.852v-23.71h22v23.71h13.806v15.83h-13.806V328.5c0 3.49.44 5.65 1.327 6.52.87.854 3.58 1.28 8.1 1.28.68 0 1.39-.01 2.15-.03.74-.036 1.49-.07 2.22-.124v16.61l-10.53.39c-10.51.37-17.69-1.445-21.53-5.452-2.5-2.554-3.75-6.478-3.75-11.785v-52.34h-11.85zm74.402-26.754h-22.545v-20.512h22.545v20.512zm-22.54 10.14h22.545v85.012h-22.545V266.96zm86.863 0h23.872l-30.705 85.012h-23.44l-30.486-85.013h24.962l17.703 62.71zm57.362 33.305c4.14-.518 7.092-1.168 8.875-1.945 3.2-1.354 4.798-3.463 4.798-6.323 0-3.48-1.23-5.888-3.677-7.215-2.456-1.327-6.056-1.986-10.796-1.986-5.32 0-9.09 1.3-11.306 3.897-1.58 1.93-2.64 4.52-3.16 7.8h-21.44c.46-7.435 2.56-13.543 6.26-18.323 5.9-7.496 16.04-11.24 30.4-11.24 9.35 0 17.65 1.846 24.92 5.546 7.26 3.683 10.89 10.66 10.89 20.896v39c0 2.707.05 5.985.15 9.83.16 2.913.61 4.886 1.33 5.928.73 1.04 1.82 1.898 3.28 2.574v3.273H975.9c-.677-1.71-1.146-3.326-1.402-4.838-.26-1.51-.47-3.23-.628-5.15-3.09 3.32-6.64 6.16-10.674 8.5-4.806 2.76-10.25 4.13-16.313 4.13-7.74 0-14.134-2.19-19.183-6.59-5.05-4.4-7.57-10.62-7.57-18.69 0-10.46 4.06-18.01 12.184-22.7 4.448-2.56 10.995-4.37 19.638-5.47l7.627-.938zm13.59 10.375c-1.424.882-2.86 1.595-4.31 2.14-1.446.554-3.437 1.062-5.968 1.524l-5.07.936c-4.75.83-8.15 1.846-10.22 3.04-3.5 2.03-5.25 5.177-5.25 9.44 0 3.8 1.06 6.547 3.2 8.228 2.14 1.69 4.74 2.536 7.8 2.536 4.86 0 9.33-1.406 13.42-4.21 4.09-2.808 6.21-7.927 6.37-15.37v-8.264zm30.067-73.628h23.024v114.965h-23.024z"/></g><path fill="#1E582C" d="M905.776 0C838.136 0 783.3 54.834 783.3 122.474S838.137 244.95 905.777 244.95s122.474-54.835 122.474-122.476C1028.25 54.834 973.42 0 905.78 0zm1.25 137.48c0 4.52-3.664 8.183-8.183 8.183-4.518 0-8.182-3.663-8.182-8.182 0-4.52 3.67-8.18 8.19-8.18s8.18 3.67 8.18 8.19zm-3.675-15.006c0-1.34 1.09-2.424 2.43-2.424s2.43 1.085 2.43 2.424c0 1.34-1.08 2.425-2.42 2.425s-2.42-1.09-2.42-2.43zm-12.99-14.996c4.52 0 8.19 3.664 8.19 8.183s-3.66 8.19-8.18 8.19-8.18-3.66-8.18-8.18 3.66-8.18 8.18-8.18zm-86.67-15.455c0-18.745 15.2-33.942 33.94-33.942 18.75 0 33.95 15.2 33.95 33.95s-15.19 33.94-33.94 33.94c-18.74 0-33.94-15.19-33.94-33.94zm71.83 131.524c-18.74 0-33.94-15.197-33.94-33.94 0-18.747 15.2-33.944 33.94-33.944s33.94 15.197 33.94 33.943c0 18.744-15.2 33.94-33.94 33.94zm28.79-116.372c0-4.52 3.66-8.183 8.18-8.183s8.19 3.664 8.19 8.183-3.66 8.183-8.18 8.183-8.18-3.664-8.18-8.183zm16.67 30.002c-4.51 0-8.18-3.663-8.18-8.183s3.67-8.182 8.18-8.182c4.52 0 8.19 3.663 8.19 8.182 0 4.52-3.66 8.183-8.18 8.183zM900.67 54.14c0-18.744 15.196-33.94 33.94-33.94 18.746 0 33.943 15.196 33.943 33.94s-15.197 33.943-33.943 33.943c-18.745 0-33.94-15.197-33.94-33.942zm71.824 131.223c-18.747 0-33.942-15.197-33.942-33.942s15.196-33.94 33.943-33.94c18.742 0 33.94 15.2 33.94 33.94s-15.198 33.95-33.94 33.95z"/></svg>