<svg xmlns="http://www.w3.org/2000/svg" width="108.667" height="108.667" viewBox="0 0 108.667 108.667"><path d="M54.334 1.934c-28.894 0-52.4 23.506-52.4 52.4 0 28.893 23.506 52.4 52.4 52.4 28.893 0 52.4-23.507 52.4-52.4 0-28.894-23.507-52.4-52.4-52.4zm20.623 71.882H34.255c-1.5 0-2.818-1.317-2.818-2.818s1.318-2.817 2.82-2.817h40.7c1.502 0 2.82 1.32 2.82 2.82 0 1.53-1.292 2.82-2.82 2.82zm0-16.8H34.255c-1.5 0-2.818-1.316-2.818-2.817 0-1.51 1.318-2.82 2.82-2.82h40.7c1.5 0 2.82 1.31 2.82 2.81s-1.32 2.82-2.82 2.82zm0-16.798H34.255c-1.5 0-2.818-1.318-2.818-2.82s1.318-2.82 2.82-2.82h40.7c1.502 0 2.82 1.318 2.82 2.82s-1.32 2.82-2.82 2.82z"/></svg>